<svg width="180" height="90" viewBox="0 0 180 90" xmlns="http://www.w3.org/2000/svg">
  <path d="M38 55h104c8 0 15-6 15-14v-4c0-6-4-11-10-13l-26-7c-5-1-10-2-16-2H75c-8 0-15 3-20 9L38 42H27c-5 0-9 4-9 9v4c0 5 4 9 9 9h11z" fill="#111111"/>
  <path d="M68 25h35c5 0 10 1 15 2l17 5H55l9-8c1-1 3-1 4-1z" fill="#1f6f54"/>
  <circle cx="55" cy="64" r="12" fill="#111111"/>
  <circle cx="55" cy="64" r="5" fill="#f5f1e8"/>
  <circle cx="130" cy="64" r="12" fill="#111111"/>
  <circle cx="130" cy="64" r="5" fill="#f5f1e8"/>
  <rect x="91" y="31" width="18" height="13" rx="3" fill="#f5f1e8"/>
  <rect x="114" y="32" width="16" height="12" rx="3" fill="#f5f1e8"/>
  <rect x="46" y="46" width="18" height="5" rx="3" fill="#1f6f54"/>
</svg>
